<svg width="16" height="16" viewBox="0 0 16 16" fill="none" xmlns="http://www.w3.org/2000/svg">
<g id="contacts">
<path id="Vector" d="M9.16659 6.33333C9.16659 6.97719 8.64378 7.5 7.99992 7.5M9.16659 6.33333C9.16659 5.68948 8.64378 5.16667 7.99992 5.16667M9.16659 6.33333C9.16659 5.69053 8.64273 5.16667 7.99992 5.16667M9.16659 6.33333C9.16659 6.97614 8.64273 7.5 7.99992 7.5M7.99992 7.5C7.35606 7.5 6.83325 6.97719 6.83325 6.33333M7.99992 7.5C7.35711 7.5 6.83325 6.97614 6.83325 6.33333M7.99992 5.16667C7.35606 5.16667 6.83325 5.68948 6.83325 6.33333M7.99992 5.16667C7.35711 5.16667 6.83325 5.69052 6.83325 6.33333M13.3333 12.5H13.8333V12V4V3.5H13.3333H2.66659H2.16659V4V12V12.5H2.66659H13.3333ZM5.54888 9.95283L5.48647 10.006C5.64106 9.85882 5.85253 9.72016 6.12273 9.59367C6.3582 9.48345 6.61368 9.39542 6.86718 9.32861C6.7921 9.34895 6.7183 9.3708 6.64625 9.39393C6.2323 9.52683 5.82356 9.71868 5.54888 9.95283ZM9.87711 9.59367C10.0004 9.65139 10.1115 9.71164 10.2105 9.77408C9.97055 9.6245 9.68016 9.49859 9.38532 9.40231C9.5538 9.4564 9.71991 9.52009 9.87711 9.59367ZM2.66659 3.16667H13.3333C13.7904 3.16667 14.1666 3.54281 14.1666 4V12C14.1666 12.4572 13.7904 12.8333 13.3333 12.8333H2.66659C2.20939 12.8333 1.83325 12.4572 1.83325 12V4C1.83325 3.54281 2.20939 3.16667 2.66659 3.16667ZM3.16659 0.5H12.8333V0.833333H3.16659V0.5ZM12.8333 15.1667V15.5H3.16659V15.1667H12.8333Z" fill="#1C1C1C" stroke="#1C1C1C"/>
</g>
</svg>
